SRRun01_grf
version=1
nRows=30
nColumns=19
inDegrees=no
endheader
time	ground_force_r_vx	ground_force_r_vy	ground_force_r_vz	ground_force_r_px	ground_force_r_py	ground_force_r_pz	ground_force_r_mx	ground_force_r_my	ground_force_r_mz	ground_force_l_vx	ground_force_l_vy	ground_force_l_vz	ground_force_l_px	ground_force_l_py	ground_force_l_pz	ground_force_l_mx	ground_force_l_my	ground_force_l_mz
    147.49900000	      0.00000000	      0.00000000	      0.00000000	      0.00000000	      0.00000000	      0.00000000	      0.00000000	      0.00000000	      0.00000000	    116.67224783	    450.96933235	    -13.82843996	      0.90825560	      0.00000000	     -0.36205219	      0.00000824	      8.03141700	      0.00001680
    147.50000000	      0.00000000	      0.00000000	      0.00000000	      0.00000000	      0.00000000	      0.00000000	      0.00000000	      0.00000000	      0.00000000	    111.07761432	    438.56526558	    -15.85079531	      0.90627846	      0.00000000	     -0.36220622	      0.00000811	      8.13250139	      0.00001587
    147.50100000	      0.00000000	      0.00000000	      0.00000000	      0.00000000	      0.00000000	      0.00000000	      0.00000000	      0.00000000	      0.00000000	    106.41673216	    426.31648260	    -17.39857335	      0.90415501	      0.00000000	     -0.36238609	      0.00000803	      7.47910125	      0.00001500
    147.50200000	      0.00000000	      0.00000000	      0.00000000	      0.00000000	      0.00000000	      0.00000000	      0.00000000	      0.00000000	      0.00000000	    103.06665928	    414.25514516	    -18.36430227	      0.90189538	      0.00000000	     -0.36256619	      0.00000799	      6.13072978	      0.00001422
    147.50300000	      0.00000000	      0.00000000	      0.00000000	      0.00000000	      0.00000000	      0.00000000	      0.00000000	      0.00000000	      0.00000000	    101.25868364	    402.40648030	    -18.69321924	      0.89952242	      0.00000000	     -0.36272142	      0.00000796	      4.20063458	      0.00001355
    147.50400000	      0.00000000	      0.00000000	      0.00000000	      0.00000000	      0.00000000	      0.00000000	      0.00000000	      0.00000000	      0.00000000	    101.05353622	    390.78571117	    -18.38585879	      0.89706667	      0.00000000	     -0.36283107	      0.00000793	      1.84609023	      0.00001300
    147.50500000	      0.00000000	      0.00000000	      0.00000000	      0.00000000	      0.00000000	      0.00000000	      0.00000000	      0.00000000	      0.00000000	    102.33510385	    379.39586668	    -17.49564831	      0.89456116	      0.00000000	     -0.36288267	      0.00000788	     -0.74447752	      0.00001256
    147.50600000	      0.00000000	      0.00000000	      0.00000000	      0.00000000	      0.00000000	      0.00000000	      0.00000000	      0.00000000	      0.00000000	    104.82342655	    368.22701576	    -16.12198041	      0.89203710	      0.00000000	     -0.36287506	      0.00000780	     -3.36647431	      0.00001224
    147.50700000	      0.00000000	      0.00000000	      0.00000000	      0.00000000	      0.00000000	      0.00000000	      0.00000000	      0.00000000	      0.00000000	    108.10557408	    357.25735834	    -14.39949923	      0.88952146	      0.00000000	     -0.36281973	      0.00000766	     -5.81499906	      0.00001202
    147.50800000	      0.00000000	      0.00000000	      0.00000000	      0.00000000	      0.00000000	      0.00000000	      0.00000000	      0.00000000	      0.00000000	    111.68098723	    346.45622908	    -12.48460202	      0.88703631	      0.00000000	     -0.36274006	      0.00000748	     -7.90033586	      0.00001189
    147.50900000	      0.00000000	      0.00000000	      0.00000000	      0.00000000	      0.00000000	      0.00000000	      0.00000000	      0.00000000	      0.00000000	    115.01626712	    335.78861447	    -10.54046981	      0.88459963	      0.00000000	     -0.36266826	      0.00000724	     -9.46196657	      0.00001183
    147.51000000	      0.00000000	      0.00000000	      0.00000000	      0.00000000	      0.00000000	      0.00000000	      0.00000000	      0.00000000	      0.00000000	    117.60334875	    325.22049631	     -8.72218155	      0.88222623	      0.00000000	     -0.36264071	      0.00000695	    -10.38023090	      0.00001181
    147.51100000	      0.00000000	      0.00000000	      0.00000000	      0.00000000	      0.00000000	      0.00000000	      0.00000000	      0.00000000	      0.00000000	    119.01460438	    314.72425701	     -7.16345003	      0.87992791	      0.00000000	     -0.36269242	      0.00000664	    -10.58495423	      0.00001181
    147.51200000	      0.00000000	      0.00000000	      0.00000000	      0.00000000	      0.00000000	      0.00000000	      0.00000000	      0.00000000	      0.00000000	    118.94875555	    304.28337682	     -5.96616998	      0.87771186	      0.00000000	     -0.36285153	      0.00000630	    -10.06047691	      0.00001182
    147.51300000	      0.00000000	      0.00000000	      0.00000000	      0.00000000	      0.00000000	      0.00000000	      0.00000000	      0.00000000	      0.00000000	    117.26253413	    293.89570028	     -5.19346333	      0.87557731	      0.00000000	     -0.36313464	      0.00000597	     -8.84666076	      0.00001181
    147.51400000	      0.00000000	      0.00000000	      0.00000000	      0.00000000	      0.00000000	      0.00000000	      0.00000000	      0.00000000	      0.00000000	    113.98470729	    283.57473091	     -4.86651713	      0.87351095	      0.00000000	     -0.36354368	      0.00000565	     -7.03572374	      0.00001177
    147.51500000	      0.00000000	      0.00000000	      0.00000000	      0.00000000	      0.00000000	      0.00000000	      0.00000000	      0.00000000	      0.00000000	    109.31114481	    273.34877868	     -4.96529989	      0.87148300	      0.00000000	     -0.36406475	      0.00000536	     -4.76512557	      0.00001168
    147.51600000	      0.00000000	      0.00000000	      0.00000000	      0.00000000	      0.00000000	      0.00000000	      0.00000000	      0.00000000	      0.00000000	    103.58180099	    263.25824709	     -5.43300326	      0.86944588	      0.00000000	     -0.36466914	      0.00000511	     -2.20706423	      0.00001156
    147.51700000	      0.00000000	      0.00000000	      0.00000000	      0.00000000	      0.00000000	      0.00000000	      0.00000000	      0.00000000	      0.00000000	     97.24250106	    253.35167481	     -6.18362343	      0.86733732	      0.00000000	     -0.36531637	      0.00000490	      0.44464002	      0.00001138
    147.51800000	      0.00000000	      0.00000000	      0.00000000	      0.00000000	      0.00000000	      0.00000000	      0.00000000	      0.00000000	      0.00000000	     90.79599097	    243.68121363	     -7.11164411	      0.86508823	      0.00000000	     -0.36595845	      0.00000473	      2.98937639	      0.00001115
    147.51900000	      0.00000000	      0.00000000	      0.00000000	      0.00000000	      0.00000000	      0.00000000	      0.00000000	      0.00000000	      0.00000000	     84.74772376	    234.29811177	     -8.10264401	      0.86263476	      0.00000000	     -0.36654475	      0.00000461	      5.23527558	      0.00001089
    147.52000000	      0.00000000	      0.00000000	      0.00000000	      0.00000000	      0.00000000	      0.00000000	      0.00000000	      0.00000000	      0.00000000	     79.55230510	    225.24859315	     -9.04390288	      0.85993244	      0.00000000	     -0.36702698	      0.00000450	      7.01426017	      0.00001058
    147.52100000	      0.00000000	      0.00000000	      0.00000000	      0.00000000	      0.00000000	      0.00000000	      0.00000000	      0.00000000	      0.00000000	     75.56635838	    216.57035617	     -9.83443335	      0.85696994	      0.00000000	     -0.36736450	      0.00000441	      8.19530139	      0.00001026
    147.52200000	      0.00000000	      0.00000000	      0.00000000	      0.00000000	      0.00000000	      0.00000000	      0.00000000	      0.00000000	      0.00000000	     73.01274788	    208.28979725	    -10.39395824	      0.85377931	      0.00000000	     -0.36752989	      0.00000433	      8.69462332	      0.00000992
    147.52300000	      0.00000000	      0.00000000	      0.00000000	      0.00000000	      0.00000000	      0.00000000	      0.00000000	      0.00000000	      0.00000000	     71.95971186	    200.41999424	    -10.67014482	      0.85043918	      0.00000000	     -0.36751402	      0.00000423	      8.48189363	      0.00000958
    147.52400000	      0.00000000	      0.00000000	      0.00000000	      0.00000000	      0.00000000	      0.00000000	      0.00000000	      0.00000000	      0.00000000	     72.31673755	    192.95946929	    -10.64319831	      0.84706839	      0.00000000	     -0.36732909	      0.00000411	      7.58187918	      0.00000923
    147.52500000	      0.00000000	      0.00000000	      0.00000000	      0.00000000	      0.00000000	      0.00000000	      0.00000000	      0.00000000	      0.00000000	     73.84716804	    185.89175892	    -10.32704369	      0.84380973	      0.00000000	     -0.36700853	      0.00000396	      6.07147962	      0.00000889
    147.52600000	      0.00000000	      0.00000000	      0.00000000	      0.00000000	      0.00000000	      0.00000000	      0.00000000	      0.00000000	      0.00000000	     76.19574438	    179.18583874	     -9.76686041	      0.84080681	      0.00000000	     -0.36660344	      0.00000378	      4.07245676	      0.00000855
    147.52700000	      0.00000000	      0.00000000	      0.00000000	      0.00000000	      0.00000000	      0.00000000	      0.00000000	      0.00000000	      0.00000000	     78.92778814	    172.79750586	     -9.03338761	      0.83817928	      0.00000000	     -0.36617657	      0.00000357	      1.74056914	      0.00000821
    147.52800000	      0.00000000	      0.00000000	      0.00000000	      0.00000000	      0.00000000	      0.00000000	      0.00000000	      0.00000000	      0.00000000	     81.57568188	    166.67180156	     -8.21479784	      0.83600232	      0.00000000	     -0.36579481	      0.00000334	     -0.74782510	      0.00000787
